<?xml version="1.0" standalone="no"?><svg xmlns="http://www.w3.org/2000/svg" viewBox="0 0 1440 320"><path fill="#0099ff" fill-opacity="1" d="M0,192L17.1,186.7C34.3,181,69,171,103,176C137.1,181,171,203,206,176C240,149,274,75,309,85.3C342.9,96,377,192,411,229.3C445.7,267,480,245,514,208C548.6,171,583,117,617,117.3C651.4,117,686,171,720,192C754.3,213,789,203,823,208C857.1,213,891,235,926,229.3C960,224,994,192,1029,181.3C1062.9,171,1097,181,1131,181.3C1165.7,181,1200,171,1234,144C1268.6,117,1303,75,1337,58.7C1371.4,43,1406,53,1423,58.7L1440,64L1440,320L1422.9,320C1405.7,320,1371,320,1337,320C1302.9,320,1269,320,1234,320C1200,320,1166,320,1131,320C1097.1,320,1063,320,1029,320C994.3,320,960,320,926,320C891.4,320,857,320,823,320C788.6,320,754,320,720,320C685.7,320,651,320,617,320C582.9,320,549,320,514,320C480,320,446,320,411,320C377.1,320,343,320,309,320C274.3,320,240,320,206,320C171.4,320,137,320,103,320C68.6,320,34,320,17,320L0,320Z"></path></svg>